<?xml version="1.0" encoding="utf-8"?>
<!-- Generator: Adobe Illustrator 16.0.0, SVG Export Plug-In . SVG Version: 6.00 Build 0)  -->
<!DOCTYPE svg PUBLIC "-//W3C//DTD SVG 1.1//EN" "http://www.w3.org/Graphics/SVG/1.1/DTD/svg11.dtd">
<svg version="1.1" id="Layer_1" xmlns="http://www.w3.org/2000/svg" xmlns:xlink="http://www.w3.org/1999/xlink" x="0px" y="0px"
	 width="196px" height="196.5px" viewBox="0 0 196 196.5" enable-background="new 0 0 196 196.5" xml:space="preserve">
<rect x="2.162" y="2.333" fill="none" stroke="#000000" stroke-width="3" stroke-miterlimit="10" width="48.004" height="48.004"/>
<rect x="2.162" y="50.337" fill="none" stroke="#000000" stroke-width="3" stroke-miterlimit="10" width="48.004" height="48.004"/>
<rect x="2.162" y="98.342" fill="none" stroke="#000000" stroke-width="3" stroke-miterlimit="10" width="48.004" height="48.004"/>
<rect x="50.166" y="98.342" fill="none" stroke="#000000" stroke-width="3" stroke-miterlimit="10" width="48.004" height="48.004"/>
<rect x="50.166" y="146.4" fill="none" stroke="#000000" stroke-width="3" stroke-miterlimit="10" width="48.004" height="48.003"/>
<rect x="98.169" y="146.4" fill="none" stroke="#000000" stroke-width="3" stroke-miterlimit="10" width="48.004" height="48.003"/>
<rect x="98.169" y="2.333" fill="none" stroke="#000000" stroke-width="3" stroke-miterlimit="10" width="48.004" height="48.004"/>
<rect x="146.174" y="2.333" fill="none" stroke="#000000" stroke-width="3" stroke-miterlimit="10" width="48.004" height="48.004"/>
<rect x="50.166" y="2.333" fill="none" stroke="#000000" stroke-width="3" stroke-miterlimit="10" width="48.004" height="48.004"/>
<text transform="matrix(1 0 0 1 10.583 41.4316)" fill="#FF00FF" font-family="'Rubik-Regular'" font-size="45.822">A</text>
<text transform="matrix(1 0 0 1 10.583 89.2178)" fill="#FF00FF" font-family="'Rubik-Regular'" font-size="45.822">A</text>
<text transform="matrix(1 0 0 1 58.5869 185.4443)" fill="#FF00FF" font-family="'Rubik-Regular'" font-size="45.822">A</text>
<text transform="matrix(1 0 0 1 106.5908 41.4316)" fill="#FF00FF" font-family="'Rubik-Regular'" font-size="45.822">A</text>
<text transform="matrix(1 0 0 1 58.4033 41.4316)" fill="#00FF00" font-family="'Rubik-Regular'" font-size="45.822">D</text>
<text transform="matrix(1 0 0 1 151.9824 41.4316)" fill="#0000FF" font-family="'Rubik-Regular'" font-size="45.822">M</text>
<text transform="matrix(1 0 0 1 7.9712 139.6221)" fill="#FF8B00" font-family="'Rubik-Regular'" font-size="45.822">M</text>
<g>
	<text transform="matrix(1 0 0 1 103.979 185.4443)" fill="#FF8B00" font-family="'Rubik-Regular'" font-size="45.822">M</text>
</g>
<text transform="matrix(1 0 0 1 59.252 139.6221)" fill="#FFFF00" font-family="'Rubik-Regular'" font-size="45.822">R</text>
</svg>
