<?xml version="1.0" encoding="utf-8"?>
<!-- Generator: Adobe Illustrator 16.0.0, SVG Export Plug-In . SVG Version: 6.00 Build 0)  -->
<!DOCTYPE svg PUBLIC "-//W3C//DTD SVG 1.1//EN" "http://www.w3.org/Graphics/SVG/1.1/DTD/svg11.dtd">
<svg version="1.1" id="Layer_1" xmlns="http://www.w3.org/2000/svg" xmlns:xlink="http://www.w3.org/1999/xlink" x="0px" y="0px"
	 width="213.5px" height="211.75px" viewBox="0 0 213.5 211.75" enable-background="new 0 0 213.5 211.75" xml:space="preserve">
<g>
	<image overflow="visible" width="226" height="226" xlink:href="A008A18F4BEB9163.png"  transform="matrix(1 0 0 1 -12.5 -12.25)">
	</image>
	<g>
		<rect x="2.162" y="2.333" stroke="#FFFFFF" stroke-width="3" stroke-miterlimit="10" width="48.004" height="48.004"/>
		<rect x="2.162" y="50.337" stroke="#FFFFFF" stroke-width="3" stroke-miterlimit="10" width="48.004" height="48.004"/>
		<rect x="2.162" y="98.342" stroke="#FFFFFF" stroke-width="3" stroke-miterlimit="10" width="48.004" height="48.004"/>
		<rect x="50.166" y="98.342" stroke="#FFFFFF" stroke-width="3" stroke-miterlimit="10" width="48.004" height="48.004"/>
		<rect x="50.166" y="146.4" stroke="#FFFFFF" stroke-width="3" stroke-miterlimit="10" width="48.004" height="48.002"/>
		<rect x="98.169" y="146.4" stroke="#FFFFFF" stroke-width="3" stroke-miterlimit="10" width="48.004" height="48.002"/>
		<rect x="98.169" y="2.333" stroke="#FFFFFF" stroke-width="3" stroke-miterlimit="10" width="48.004" height="48.004"/>
		<rect x="146.174" y="2.333" stroke="#FFFFFF" stroke-width="3" stroke-miterlimit="10" width="48.004" height="48.004"/>
		<rect x="50.166" y="2.333" stroke="#FFFFFF" stroke-width="3" stroke-miterlimit="10" width="48.004" height="48.004"/>
	</g>
</g>
<g enable-background="new    ">
	<path fill="#FF00FF" d="M34.09,34.191h-15.9l-2.383,6.095c-0.092,0.245-0.26,0.497-0.504,0.756c-0.245,0.26-0.672,0.39-1.283,0.39
		h-1.695c-0.275,0-0.512-0.099-0.71-0.298c-0.199-0.198-0.298-0.436-0.298-0.71c0-0.152,0.061-0.367,0.184-0.642l11.227-28.914
		c0.152-0.336,0.381-0.671,0.687-1.008c0.305-0.336,0.763-0.504,1.375-0.504h2.75c0.611,0,1.069,0.168,1.375,0.504
		c0.305,0.337,0.534,0.672,0.688,1.008L40.78,39.782c0.122,0.274,0.183,0.489,0.183,0.642c0,0.274-0.1,0.512-0.298,0.71
		c-0.199,0.199-0.435,0.298-0.71,0.298h-1.696c-0.611,0-1.039-0.13-1.283-0.39c-0.245-0.259-0.413-0.511-0.504-0.756L34.09,34.191z
		 M19.793,30.067h12.692l-6.323-16.358L19.793,30.067z"/>
</g>
<g enable-background="new    ">
	<path fill="#FF00FF" d="M34.09,81.978h-15.9l-2.383,6.095c-0.092,0.245-0.26,0.497-0.504,0.756c-0.245,0.26-0.672,0.39-1.283,0.39
		h-1.695c-0.275,0-0.512-0.099-0.71-0.298c-0.199-0.198-0.298-0.436-0.298-0.71c0-0.152,0.061-0.367,0.184-0.642l11.227-28.914
		c0.152-0.336,0.381-0.671,0.687-1.008c0.305-0.336,0.763-0.504,1.375-0.504h2.75c0.611,0,1.069,0.168,1.375,0.504
		c0.305,0.337,0.534,0.672,0.688,1.008L40.78,87.568c0.122,0.274,0.183,0.489,0.183,0.642c0,0.274-0.1,0.512-0.298,0.71
		c-0.199,0.199-0.435,0.298-0.71,0.298h-1.696c-0.611,0-1.039-0.13-1.283-0.39c-0.245-0.259-0.413-0.511-0.504-0.756L34.09,81.978z
		 M19.793,77.854h12.692l-6.323-16.358L19.793,77.854z"/>
</g>
<g enable-background="new    ">
	<path fill="#FF00FF" d="M82.094,178.204h-15.9l-2.383,6.095c-0.092,0.245-0.26,0.497-0.504,0.756
		c-0.245,0.26-0.672,0.391-1.283,0.391h-1.695c-0.275,0-0.512-0.1-0.71-0.299c-0.199-0.197-0.298-0.436-0.298-0.709
		c0-0.152,0.061-0.367,0.184-0.643l11.227-28.914c0.152-0.336,0.381-0.671,0.687-1.008c0.305-0.336,0.763-0.504,1.375-0.504h2.75
		c0.611,0,1.069,0.168,1.375,0.504c0.305,0.337,0.534,0.672,0.688,1.008l11.181,28.914c0.122,0.273,0.183,0.489,0.183,0.643
		c0,0.273-0.1,0.512-0.298,0.709c-0.199,0.199-0.435,0.299-0.71,0.299h-1.696c-0.611,0-1.039-0.131-1.283-0.391
		c-0.245-0.259-0.413-0.511-0.504-0.756L82.094,178.204z M67.797,174.08H80.49l-6.323-16.357L67.797,174.08z"/>
</g>
<g enable-background="new    ">
	<path fill="#FF00FF" d="M130.098,34.191h-15.899l-2.384,6.095c-0.092,0.245-0.26,0.497-0.504,0.756
		c-0.244,0.26-0.672,0.39-1.283,0.39h-1.694c-0.274,0-0.513-0.099-0.711-0.298c-0.198-0.198-0.297-0.436-0.297-0.71
		c0-0.152,0.062-0.367,0.184-0.642l11.228-28.914c0.152-0.336,0.381-0.671,0.687-1.008c0.306-0.336,0.763-0.504,1.374-0.504h2.75
		c0.611,0,1.068,0.168,1.375,0.504c0.305,0.337,0.533,0.672,0.688,1.008l11.181,28.914c0.122,0.274,0.185,0.489,0.185,0.642
		c0,0.274-0.101,0.512-0.299,0.71c-0.197,0.199-0.435,0.298-0.71,0.298h-1.694c-0.611,0-1.039-0.13-1.283-0.39
		c-0.245-0.259-0.412-0.511-0.504-0.756L130.098,34.191z M115.801,30.067h12.693l-6.324-16.358L115.801,30.067z"/>
</g>
<g enable-background="new    ">
	<path fill="#00FF00" d="M87.226,21.774c0.03,1.374,0.045,2.581,0.045,3.619c0,1.039-0.016,2.246-0.045,3.62
		c-0.031,1.925-0.367,3.659-1.008,5.201c-0.642,1.543-1.528,2.849-2.658,3.918c-1.13,1.069-2.474,1.886-4.032,2.451
		c-1.558,0.565-3.284,0.848-5.178,0.848H63.581c-0.336,0-0.626-0.122-0.871-0.366s-0.366-0.534-0.366-0.871v-29.6
		c0-0.336,0.122-0.626,0.366-0.871c0.244-0.244,0.534-0.366,0.871-0.366h10.493c1.894,0,3.643,0.282,5.247,0.848
		c1.604,0.565,2.985,1.383,4.146,2.451c1.161,1.069,2.069,2.376,2.727,3.918C86.851,18.116,87.194,19.85,87.226,21.774z
		 M82.872,22.003c-0.031-1.1-0.206-2.16-0.527-3.185c-0.321-1.023-0.833-1.932-1.535-2.727c-0.703-0.794-1.619-1.428-2.749-1.901
		c-1.13-0.474-2.521-0.71-4.17-0.71h-7.194v23.827h7.423c1.65,0,3.032-0.236,4.147-0.71c1.115-0.474,2.008-1.107,2.681-1.901
		c0.671-0.795,1.153-1.703,1.443-2.727c0.29-1.023,0.45-2.085,0.481-3.185c0-0.672,0.007-1.275,0.023-1.811
		c0.015-0.534,0.023-1.054,0.023-1.558s-0.008-1.023-0.023-1.558C82.879,23.325,82.872,22.706,82.872,22.003z"/>
</g>
<g enable-background="new    ">
	<path fill="#0000FF" d="M170.174,28.739l9.256-17.917c0.184-0.366,0.437-0.702,0.756-1.008c0.321-0.305,0.74-0.458,1.26-0.458
		h1.742c0.336,0,0.625,0.122,0.871,0.366c0.243,0.245,0.365,0.535,0.365,0.871v29.601c0,0.337-0.122,0.627-0.365,0.871
		c-0.246,0.244-0.535,0.366-0.871,0.366h-1.879c-0.336,0-0.627-0.122-0.871-0.366s-0.365-0.534-0.365-0.871v-21.72l-7.148,13.793
		c-0.244,0.458-0.504,0.817-0.777,1.076c-0.275,0.26-0.644,0.39-1.101,0.39h-1.741c-0.459,0-0.824-0.13-1.101-0.39
		c-0.274-0.259-0.535-0.618-0.779-1.076l-7.147-13.793v21.72c0,0.337-0.121,0.627-0.365,0.871c-0.246,0.244-0.535,0.366-0.871,0.366
		h-1.879c-0.336,0-0.627-0.122-0.871-0.366s-0.365-0.534-0.365-0.871v-29.6c0-0.336,0.121-0.626,0.365-0.871
		c0.244-0.244,0.535-0.366,0.871-0.366h1.74c0.52,0,0.939,0.153,1.262,0.458c0.32,0.306,0.572,0.642,0.756,1.008L170.174,28.739z"/>
</g>
<g enable-background="new    ">
	<path fill="#FF8B00" d="M26.163,126.93l9.256-17.916c0.184-0.367,0.436-0.703,0.756-1.009c0.321-0.305,0.74-0.458,1.26-0.458h1.741
		c0.336,0,0.626,0.122,0.871,0.366c0.244,0.245,0.367,0.535,0.367,0.871v29.601c0,0.338-0.123,0.627-0.367,0.871
		c-0.245,0.244-0.535,0.366-0.871,0.366h-1.878c-0.336,0-0.626-0.122-0.871-0.366c-0.245-0.244-0.367-0.533-0.367-0.871v-21.72
		l-7.148,13.793c-0.245,0.458-0.504,0.817-0.779,1.076c-0.275,0.26-0.642,0.39-1.1,0.39h-1.741c-0.458,0-0.825-0.13-1.1-0.39
		c-0.275-0.259-0.535-0.618-0.779-1.076l-7.148-13.793v21.72c0,0.338-0.123,0.627-0.367,0.871c-0.245,0.244-0.535,0.366-0.871,0.366
		h-1.879c-0.336,0-0.626-0.122-0.871-0.366c-0.245-0.244-0.366-0.533-0.366-0.871v-29.601c0-0.336,0.122-0.626,0.366-0.871
		c0.244-0.244,0.534-0.366,0.871-0.366h1.741c0.519,0,0.939,0.153,1.26,0.458c0.321,0.306,0.573,0.642,0.756,1.009L26.163,126.93z"
		/>
</g>
<g>
	<g enable-background="new    ">
		<path fill="#FF0000" d="M122.17,172.752l9.256-17.917c0.184-0.366,0.436-0.702,0.758-1.008c0.32-0.306,0.739-0.458,1.26-0.458
			h1.74c0.336,0,0.627,0.122,0.871,0.365c0.244,0.246,0.366,0.535,0.366,0.871v29.602c0,0.337-0.122,0.627-0.366,0.871
			s-0.535,0.365-0.871,0.365h-1.879c-0.336,0-0.625-0.121-0.869-0.365c-0.246-0.244-0.367-0.534-0.367-0.871v-21.721l-7.147,13.794
			c-0.245,0.458-0.504,0.817-0.778,1.075c-0.275,0.261-0.643,0.391-1.101,0.391H121.3c-0.458,0-0.825-0.13-1.1-0.391
			c-0.274-0.258-0.535-0.617-0.779-1.075l-7.147-13.794v21.721c0,0.337-0.123,0.627-0.366,0.871
			c-0.245,0.244-0.535,0.365-0.871,0.365h-1.879c-0.337,0-0.626-0.121-0.87-0.365c-0.245-0.244-0.366-0.534-0.366-0.871v-29.602
			c0-0.336,0.121-0.625,0.366-0.871c0.244-0.243,0.533-0.365,0.87-0.365h1.741c0.52,0,0.939,0.152,1.261,0.458
			c0.319,0.306,0.571,0.642,0.756,1.008L122.17,172.752z"/>
	</g>
</g>
<g enable-background="new    ">
	<path fill="#FFFF00" d="M75.519,107.547c1.497,0,2.91,0.184,4.239,0.551c1.329,0.365,2.497,0.932,3.505,1.694
		c1.008,0.763,1.81,1.741,2.406,2.933c0.596,1.192,0.894,2.629,0.894,4.309c0,2.474-0.619,4.443-1.856,5.91
		s-2.818,2.506-4.743,3.115l6.919,12.053c0.091,0.183,0.137,0.352,0.137,0.504c0,0.273-0.1,0.512-0.298,0.71
		c-0.199,0.198-0.435,0.298-0.71,0.298h-1.971c-0.611,0-1.062-0.152-1.352-0.458c-0.291-0.306-0.497-0.565-0.619-0.779L75.427,126.7
		h-7.881v11.685c0,0.338-0.123,0.627-0.367,0.871c-0.245,0.244-0.535,0.366-0.871,0.366H64.43c-0.336,0-0.626-0.122-0.871-0.366
		s-0.366-0.533-0.366-0.871v-29.601c0-0.336,0.122-0.626,0.366-0.871c0.244-0.244,0.534-0.366,0.871-0.366H75.519z M67.546,122.576
		h7.744c2.2,0,3.902-0.436,5.109-1.307c1.206-0.871,1.81-2.283,1.81-4.237c0-1.955-0.604-3.339-1.81-4.147
		c-1.207-0.809-2.91-1.214-5.109-1.214h-7.744V122.576z"/>
</g>
</svg>
